<svg width="18" height="18" viewBox="0 0 18 18" fill="none" xmlns="http://www.w3.org/2000/svg">
<path d="M6.75 1.5C6.61193 1.5 6.5 1.61193 6.5 1.75V5.75C6.5 6.16421 6.16421 6.5 5.75 6.5H1.75C1.61193 6.5 1.5 6.61193 1.5 6.75V11.25C1.5 11.3881 1.61193 11.5 1.75 11.5H5.75C6.16421 11.5 6.5 11.8358 6.5 12.25V16.25C6.5 16.3881 6.61193 16.5 6.75 16.5H11.25C11.3881 16.5 11.5 16.3881 11.5 16.25V12.25C11.5 11.8358 11.8358 11.5 12.25 11.5H16.25C16.3881 11.5 16.5 11.3881 16.5 11.25V6.75C16.5 6.61193 16.3881 6.5 16.25 6.5H12.25C11.8358 6.5 11.5 6.16421 11.5 5.75V1.75C11.5 1.61193 11.3881 1.5 11.25 1.5H6.75ZM5 1.75C5 0.7835 5.7835 0 6.75 0H11.25C12.2165 0 13 0.7835 13 1.75V5H16.25C17.2165 5 18 5.7835 18 6.75V11.25C18 12.2165 17.2165 13 16.25 13H13V16.25C13 17.2165 12.2165 18 11.25 18H6.75C5.7835 18 5 17.2165 5 16.25V13H1.75C0.7835 13 0 12.2165 0 11.25V6.75C0 5.7835 0.7835 5 1.75 5H5V1.75Z" fill="black"/>
</svg>
